<?xml version="1.0" standalone="no"?>
<!DOCTYPE svg PUBLIC "-//W3C//DTD SVG 20010904//EN"
 "http://www.w3.org/TR/2001/REC-SVG-20010904/DTD/svg10.dtd">
<svg version="1.0" xmlns="http://www.w3.org/2000/svg"
 width="880.000000pt" height="880.000000pt" viewBox="0 0 880.000000 880.000000"
 preserveAspectRatio="xMidYMid meet">
<metadata>
Created by potrace 1.14, written by Peter Selinger 2001-2017
</metadata>
<g transform="translate(0.000000,880.000000) scale(0.100000,-0.100000)"
fill="#000000" stroke="none">
<path d="M19 7228 c5 -13 18 -41 29 -63 11 -22 36 -74 55 -115 19 -41 54 -115
77 -165 23 -49 58 -124 77 -165 19 -41 52 -111 73 -155 21 -44 50 -107 65
-140 15 -33 48 -103 73 -155 72 -154 109 -234 113 -245 2 -5 27 -58 56 -117
29 -60 53 -110 53 -112 0 -2 26 -59 59 -127 32 -68 70 -149 84 -179 33 -72 96
-207 140 -300 19 -41 52 -111 72 -155 21 -44 53 -114 72 -155 20 -41 51 -109
70 -150 62 -132 100 -213 143 -305 23 -49 57 -121 75 -160 46 -99 304 -651
360 -770 26 -55 58 -125 72 -155 14 -30 46 -98 70 -150 92 -195 111 -236 117
-257 4 -13 12 -23 17 -23 5 0 9 -6 9 -14 0 -7 30 -76 66 -152 36 -77 76 -161
89 -189 12 -27 46 -98 74 -158 28 -59 51 -109 51 -111 0 -2 31 -69 68 -148 38
-78 85 -179 106 -223 20 -44 67 -145 105 -225 l67 -145 600 0 c329 0 611 2
625 3 23 3 29 12 44 60 10 32 45 138 77 237 33 99 61 187 63 195 2 8 10 33 18
55 15 42 119 363 123 380 1 6 18 58 38 117 l35 107 -41 113 c-22 62 -43 125
-45 141 -3 15 -9 27 -12 27 -4 0 -8 6 -8 13 -1 10 -71 219 -90 267 -3 8 -7 20
-9 25 -2 6 -26 75 -54 155 -29 80 -53 150 -54 155 -2 6 -6 17 -9 25 -4 8 -25
69 -48 135 -23 66 -43 121 -44 123 -3 4 -72 -98 -88 -128 -4 -8 -16 -28 -27
-45 -11 -16 -23 -37 -27 -45 -3 -8 -9 -17 -13 -20 -5 -4 -89 -138 -125 -199
-5 -9 -62 -99 -125 -199 -63 -101 -123 -197 -134 -215 -10 -17 -26 -42 -37
-55 l-18 -23 -114 233 c-63 128 -170 346 -238 483 -67 138 -122 253 -121 257
1 3 -5 12 -13 18 -8 7 -15 16 -15 21 0 8 -95 204 -390 804 -84 171 -203 414
-265 540 -62 127 -187 381 -277 565 -90 184 -171 350 -179 368 -7 17 -17 32
-21 32 -5 0 -8 5 -8 12 0 12 -27 67 -291 603 -79 160 -143 292 -144 295 0 3
-9 20 -18 38 l-18 32 -584 0 -585 0 9 -22z"/>
<path d="M7588 7192 c-28 -60 -136 -287 -221 -462 -28 -58 -51 -107 -52 -110
-1 -5 -37 -79 -185 -385 -93 -192 -188 -389 -257 -535 -30 -63 -70 -145 -88
-182 -19 -36 -31 -69 -28 -72 4 -3 1 -6 -5 -6 -7 0 -12 -4 -12 -9 0 -5 -40
-92 -89 -193 -48 -101 -111 -230 -138 -288 -28 -58 -82 -170 -120 -250 -162
-336 -193 -401 -193 -410 0 -6 -4 -10 -10 -10 -5 0 -10 -5 -10 -12 0 -7 -18
-48 -39 -93 -100 -205 -181 -377 -181 -386 0 -5 -4 -9 -10 -9 -5 0 -10 -5 -10
-10 0 -6 -27 -67 -60 -137 -33 -69 -60 -130 -60 -134 0 -5 -4 -9 -10 -9 -5 0
-10 -6 -10 -13 0 -8 -13 -40 -29 -73 -181 -372 -221 -457 -221 -465 0 -27 -30
6 -87 97 -34 54 -68 110 -76 124 -7 14 -66 112 -130 217 -64 106 -117 197
-117 202 0 5 -4 11 -8 13 -8 3 -276 443 -297 487 -5 12 -13 21 -17 21 -5 0 -8
5 -8 10 0 10 -78 142 -146 247 -19 28 -34 56 -34 62 0 6 -4 11 -10 11 -5 0 -9
3 -8 8 1 4 -5 18 -14 32 -51 80 -182 298 -189 318 -5 12 -13 22 -19 22 -5 0
-10 5 -10 10 0 6 -66 120 -146 253 -81 133 -155 256 -164 272 -10 17 -55 91
-100 165 -45 74 -91 149 -100 166 -10 18 -41 69 -69 114 -28 45 -51 83 -51 85
0 2 -27 47 -60 99 -33 53 -60 100 -60 106 0 5 -4 10 -10 10 -5 0 -10 4 -10 9
0 4 -38 71 -85 147 -47 76 -95 158 -107 182 -12 23 -26 42 -30 42 -4 0 -8 9
-8 19 0 11 -4 21 -8 23 -11 4 -182 286 -182 299 0 5 -4 9 -10 9 -5 0 -10 5
-10 12 0 6 -6 19 -14 27 -7 9 -24 36 -37 61 -13 25 -29 50 -35 57 -6 6 -17 25
-24 42 -7 17 -16 31 -21 31 -5 0 -9 6 -9 13 0 6 -9 23 -20 37 l-20 25 17 -50
c8 -27 20 -56 26 -62 5 -7 7 -13 4 -13 -3 0 1 -17 9 -37 9 -20 17 -44 19 -52
2 -9 27 -81 55 -161 28 -80 62 -176 75 -215 13 -38 56 -162 95 -275 39 -113
73 -209 74 -215 4 -20 29 -90 35 -100 3 -5 6 -14 7 -20 1 -5 37 -109 79 -230
42 -121 78 -227 80 -235 3 -13 36 -107 52 -150 25 -67 84 -240 89 -259 2 -13
12 -37 20 -52 8 -16 12 -29 8 -29 -4 0 -1 -7 6 -15 7 -8 9 -15 5 -15 -4 0 -3
-6 3 -12 6 -7 11 -17 12 -23 4 -16 7 -27 29 -87 11 -32 18 -58 15 -58 -4 0 -2
-6 3 -12 6 -7 18 -38 28 -68 10 -30 22 -61 28 -67 5 -7 7 -13 4 -13 -5 0 7
-37 98 -295 31 -88 58 -167 60 -175 6 -23 85 -252 95 -275 5 -11 18 -51 31
-90 12 -38 26 -76 32 -82 5 -7 7 -13 3 -13 -3 0 -1 -12 5 -27 11 -27 134 -380
165 -473 8 -25 18 -52 21 -60 4 -8 7 -17 8 -20 2 -10 27 -86 32 -100 16 -43
74 -207 78 -220 2 -8 36 -107 75 -220 39 -113 77 -223 85 -245 31 -95 117
-342 125 -360 5 -11 14 -38 20 -60 6 -22 14 -47 17 -55 3 -8 27 -76 53 -150
l46 -135 603 -3 602 -2 54 116 c30 63 55 119 55 125 0 5 5 9 12 9 6 0 9 3 6 6
-3 3 22 65 57 137 155 327 207 438 210 447 1 3 18 41 39 85 21 44 55 116 76
160 20 44 54 116 75 160 59 124 109 231 160 340 26 55 59 125 73 155 15 30 27
57 27 60 1 3 24 53 53 113 28 59 51 110 51 112 0 3 9 22 20 43 19 34 80 162
151 317 15 33 47 101 70 150 23 50 57 122 75 160 18 39 53 113 78 165 59 126
121 258 163 348 19 39 49 105 68 145 19 39 56 119 84 177 27 58 64 137 81 175
65 142 83 180 92 195 19 33 54 115 51 123 -1 4 2 7 7 7 5 0 12 10 16 23 4 12
8 24 9 27 1 3 19 41 40 85 21 44 57 118 78 165 22 47 55 117 74 156 19 39 34
76 34 83 0 6 5 11 10 11 6 0 10 6 10 13 0 8 6 27 14 43 16 32 122 256 164 344
14 30 27 57 27 60 1 3 24 53 53 113 28 59 51 108 51 110 0 1 22 48 50 105 28
56 51 104 51 106 0 4 96 209 107 229 2 4 -263 7 -589 6 l-593 0 -27 -57z"/>
<path d="M5800 7095 c0 -8 -4 -15 -8 -15 -5 0 -19 -19 -31 -42 -37 -71 -56
-103 -62 -108 -3 -3 -14 -21 -24 -40 -10 -19 -21 -37 -25 -40 -3 -3 -22 -31
-41 -63 -41 -70 -41 -71 -102 -172 -27 -44 -80 -132 -119 -195 -39 -63 -79
-130 -90 -149 -11 -19 -34 -58 -51 -86 -18 -28 -37 -60 -44 -71 -70 -113 -99
-161 -102 -169 -2 -5 -16 -28 -30 -50 -14 -22 -31 -49 -38 -60 -6 -11 -53 -87
-103 -170 -51 -82 -116 -190 -146 -240 -29 -49 -58 -97 -64 -105 -6 -8 -18
-30 -27 -47 -9 -18 -20 -33 -25 -33 -4 0 -8 -9 -8 -20 0 -11 -4 -20 -9 -20 -5
0 -14 -13 -21 -30 -7 -16 -16 -30 -21 -30 -5 0 -9 -5 -9 -10 0 -6 -17 -38 -39
-72 l-39 -61 182 -303 c99 -167 184 -303 187 -303 3 -1 20 43 38 97 18 53 35
104 38 112 3 8 7 20 9 25 1 6 17 51 34 100 17 50 34 99 37 110 2 11 7 27 11
35 3 8 6 17 7 20 1 3 5 13 9 22 4 9 9 22 10 30 2 7 6 20 9 28 9 25 69 204 72
215 1 6 5 17 8 25 3 8 17 49 31 90 14 41 75 224 136 405 62 182 113 335 114
340 2 6 6 17 9 25 10 22 178 522 182 540 2 8 4 15 4 15 1 0 110 313 115 330
17 60 37 117 46 134 7 14 7 21 0 21 -5 0 -10 -7 -10 -15z"/>
</g>
</svg>
